<svg width="29" height="28" viewBox="0 0 29 28" fill="none" xmlns="http://www.w3.org/2000/svg">
<g clip-path="url(#clip0_6_299)">
<path d="M4.15038 28H13.3919V18.0469H10.0716V14.7656H13.3919V10.6641C13.3919 8.40244 15.2537 6.5625 17.5423 6.5625H21.6927V9.84375H18.3724C17.4569 9.84375 16.7122 10.5797 16.7122 11.4844V14.7656H21.5429L20.9895 18.0469H16.7122V28H24.1829C26.4715 28 28.3333 26.1601 28.3333 23.8984V4.10156C28.3333 1.83994 26.4715 0 24.1829 0H4.15038C1.86184 0 0 1.83994 0 4.10156V23.8984C0 26.1601 1.86184 28 4.15038 28ZM1.66015 4.10156C1.66015 2.74463 2.7773 1.64062 4.15038 1.64062H24.1829C25.556 1.64062 26.6731 2.74463 26.6731 4.10156V23.8984C26.6731 25.2554 25.556 26.3594 24.1829 26.3594H18.3724V19.6875H22.3959L23.5026 13.125H18.3724V11.4844H23.3528V4.92188H17.5423C14.3383 4.92188 11.7318 7.49774 11.7318 10.6641V13.125H8.41144V19.6875H11.7318V26.3594H4.15038C2.7773 26.3594 1.66015 25.2554 1.66015 23.8984V4.10156Z" fill="white"/>
</g>
<defs>
<clipPath id="clip0_6_299">
<rect width="28.3333" height="28" fill="white"/>
</clipPath>
</defs>
</svg>
